<?xml version="1.0" encoding="utf-8"?>
<!-- Generator: Adobe Illustrator 19.2.0, SVG Export Plug-In . SVG Version: 6.00 Build 0)  -->
<svg version="1.1" id="Layer_1" xmlns:sketch="http://www.bohemiancoding.com/sketch/ns"
	 xmlns="http://www.w3.org/2000/svg" xmlns:xlink="http://www.w3.org/1999/xlink" x="0px" y="0px" viewBox="0 0 559 362"
	 style="enable-background:new 0 0 559 362;" xml:space="preserve">
<style type="text/css">
	.st0{fill:#222222;}
</style>
<title>gv</title>
<desc>Created with Sketch.</desc>
<g id="Page-1" sketch:type="MSPage">
	<g id="gv" sketch:type="MSArtboardGroup">
		<path id="Fill-1" sketch:type="MSShapeGroup" class="st0" d="M177.8,347C86,347,11.6,272.7,11.6,181S86,15,177.8,15
			c12,0,23.6,1.3,34.9,3.7l37.1,73.7c-19.3-12.9-42.3-20.9-67.5-21.7c-1.5-0.1-3.1-0.1-4.6-0.1v0c-61.1,0.1-110.5,49.8-110.5,110.7
			c0,61,49.5,110.8,110.7,110.8c51.7,0,95-37.9,107.2-82.5h-118v-57.4h113.4l48.7,97.1C302.9,306.7,245,347,177.8,347"/>
		<path id="Fill-2" sketch:type="MSShapeGroup" class="st0" d="M382.9,346.1l-32.3-64l132-263.6h64.9L382.9,346.1"/>
	</g>
</g>
</svg>
